<mxfile host="app.diagrams.net" agent="Mozilla/5.0 (Windows NT 10.0; Win64; x64) AppleWebKit/537.36 (KHTML, like Gecko) Chrome/133.0.0.0 Safari/537.36" version="26.0.16">
  <diagram id="llquCvDjDa5xM2ESyYwQ" name="Page-1">
    <mxGraphModel dx="1434" dy="772" grid="0" gridSize="10" guides="1" tooltips="1" connect="1" arrows="1" fold="1" page="1" pageScale="1" pageWidth="1169" pageHeight="1654" math="0" shadow="0" adaptiveColors="simple">
      <root>
        <mxCell id="0" />
        <mxCell id="1" parent="0" />
        <mxCell id="T6Cd3c6cxlewvigG5RWd-10" value="INFRA" style="dashed=1;rounded=1;absoluteArcSize=1;arcSize=20;html=1;verticalAlign=top;align=left;spacingTop=5;spacingLeft=10;whiteSpace=wrap;" vertex="1" parent="1">
          <mxGeometry x="1039" y="172" width="320" height="157" as="geometry" />
        </mxCell>
        <mxCell id="T6Cd3c6cxlewvigG5RWd-3" value="MODEL" style="dashed=1;rounded=1;absoluteArcSize=1;arcSize=20;html=1;verticalAlign=top;align=left;spacingTop=5;spacingLeft=10;whiteSpace=wrap;" vertex="1" parent="1">
          <mxGeometry x="242.5" y="662" width="717" height="296" as="geometry" />
        </mxCell>
        <mxCell id="T6Cd3c6cxlewvigG5RWd-2" value="VIEW" style="dashed=1;rounded=1;absoluteArcSize=1;arcSize=20;html=1;verticalAlign=top;align=left;spacingTop=5;spacingLeft=10;whiteSpace=wrap;" vertex="1" parent="1">
          <mxGeometry x="285" y="178" width="632" height="151" as="geometry" />
        </mxCell>
        <mxCell id="T6Cd3c6cxlewvigG5RWd-1" value="CONTROL" style="dashed=1;rounded=1;absoluteArcSize=1;arcSize=20;html=1;verticalAlign=top;align=left;spacingTop=5;spacingLeft=10;whiteSpace=wrap;" vertex="1" parent="1">
          <mxGeometry x="155" y="368" width="1370" height="218" as="geometry" />
        </mxCell>
        <mxCell id="5KsK36yTaGeS-g4vnIt7-17" value="UsuÃ¡rio" style="swimlane;fontStyle=1;align=center;verticalAlign=top;childLayout=stackLayout;horizontal=1;startSize=26;horizontalStack=0;resizeParent=1;resizeParentMax=0;resizeLast=0;collapsible=1;marginBottom=0;whiteSpace=wrap;html=1;" parent="1" vertex="1">
          <mxGeometry x="521" y="689" width="160" height="130" as="geometry" />
        </mxCell>
        <mxCell id="5KsK36yTaGeS-g4vnIt7-18" value="+ id: int&lt;div&gt;+ username: String&lt;/div&gt;&lt;div&gt;+ bloqueado: boolean&lt;/div&gt;" style="text;strokeColor=none;fillColor=none;align=left;verticalAlign=top;spacingLeft=4;spacingRight=4;overflow=hidden;rotatable=0;points=[[0,0.5],[1,0.5]];portConstraint=eastwest;whiteSpace=wrap;html=1;" parent="5KsK36yTaGeS-g4vnIt7-17" vertex="1">
          <mxGeometry y="26" width="160" height="54" as="geometry" />
        </mxCell>
        <mxCell id="5KsK36yTaGeS-g4vnIt7-19" value="" style="line;strokeWidth=1;fillColor=none;align=left;verticalAlign=middle;spacingTop=-1;spacingLeft=3;spacingRight=3;rotatable=0;labelPosition=right;points=[];portConstraint=eastwest;strokeColor=inherit;" parent="5KsK36yTaGeS-g4vnIt7-17" vertex="1">
          <mxGeometry y="80" width="160" height="8" as="geometry" />
        </mxCell>
        <mxCell id="5KsK36yTaGeS-g4vnIt7-20" value="+ login(): boolean&lt;div&gt;+ logout(): void&lt;/div&gt;" style="text;strokeColor=none;fillColor=none;align=left;verticalAlign=top;spacingLeft=4;spacingRight=4;overflow=hidden;rotatable=0;points=[[0,0.5],[1,0.5]];portConstraint=eastwest;whiteSpace=wrap;html=1;" parent="5KsK36yTaGeS-g4vnIt7-17" vertex="1">
          <mxGeometry y="88" width="160" height="42" as="geometry" />
        </mxCell>
        <mxCell id="5KsK36yTaGeS-g4vnIt7-25" value="Administrador" style="swimlane;fontStyle=1;align=center;verticalAlign=top;childLayout=stackLayout;horizontal=1;startSize=26;horizontalStack=0;resizeParent=1;resizeParentMax=0;resizeLast=0;collapsible=1;marginBottom=0;whiteSpace=wrap;html=1;" parent="1" vertex="1">
          <mxGeometry x="523" y="879" width="160" height="60" as="geometry" />
        </mxCell>
        <mxCell id="5KsK36yTaGeS-g4vnIt7-27" value="" style="line;strokeWidth=1;fillColor=none;align=left;verticalAlign=middle;spacingTop=-1;spacingLeft=3;spacingRight=3;rotatable=0;labelPosition=right;points=[];portConstraint=eastwest;strokeColor=inherit;" parent="5KsK36yTaGeS-g4vnIt7-25" vertex="1">
          <mxGeometry y="26" width="160" height="8" as="geometry" />
        </mxCell>
        <mxCell id="5KsK36yTaGeS-g4vnIt7-28" value="+ gerenciarUsuarios(): void" style="text;strokeColor=none;fillColor=none;align=left;verticalAlign=top;spacingLeft=4;spacingRight=4;overflow=hidden;rotatable=0;points=[[0,0.5],[1,0.5]];portConstraint=eastwest;whiteSpace=wrap;html=1;" parent="5KsK36yTaGeS-g4vnIt7-25" vertex="1">
          <mxGeometry y="34" width="160" height="26" as="geometry" />
        </mxCell>
        <mxCell id="5KsK36yTaGeS-g4vnIt7-32" value="Extends" style="endArrow=block;endSize=16;endFill=0;html=1;rounded=0;exitX=0.5;exitY=0;exitDx=0;exitDy=0;entryX=0.503;entryY=1.065;entryDx=0;entryDy=0;entryPerimeter=0;" parent="1" source="5KsK36yTaGeS-g4vnIt7-25" target="5KsK36yTaGeS-g4vnIt7-20" edge="1">
          <mxGeometry width="160" relative="1" as="geometry">
            <mxPoint x="624" y="844.5" as="sourcePoint" />
            <mxPoint x="784" y="844.5" as="targetPoint" />
          </mxGeometry>
        </mxCell>
        <mxCell id="5KsK36yTaGeS-g4vnIt7-37" value="UserController" style="swimlane;fontStyle=1;align=center;verticalAlign=top;childLayout=stackLayout;horizontal=1;startSize=26;horizontalStack=0;resizeParent=1;resizeParentMax=0;resizeLast=0;collapsible=1;marginBottom=0;whiteSpace=wrap;html=1;" parent="1" vertex="1">
          <mxGeometry x="567" y="402" width="290" height="134" as="geometry" />
        </mxCell>
        <mxCell id="5KsK36yTaGeS-g4vnIt7-39" value="" style="line;strokeWidth=1;fillColor=none;align=left;verticalAlign=middle;spacingTop=-1;spacingLeft=3;spacingRight=3;rotatable=0;labelPosition=right;points=[];portConstraint=eastwest;strokeColor=inherit;" parent="5KsK36yTaGeS-g4vnIt7-37" vertex="1">
          <mxGeometry y="26" width="290" height="8" as="geometry" />
        </mxCell>
        <mxCell id="5KsK36yTaGeS-g4vnIt7-40" value="&lt;div&gt;+ adicionarUsuario(String[] param): void&lt;/div&gt;&lt;div&gt;+ validarLogin(String[] param): void&lt;/div&gt;&lt;div&gt;+ validarSenha(String[] param): void&lt;/div&gt;&lt;div&gt;+ bloquearUsuario(id: int): void&lt;div&gt;+ buscarUsuario(id: int): Usuario&lt;/div&gt;&lt;/div&gt;&lt;div&gt;+ desbloquearUsuario(id: int): void&lt;/div&gt;" style="text;strokeColor=none;fillColor=none;align=left;verticalAlign=top;spacingLeft=4;spacingRight=4;overflow=hidden;rotatable=0;points=[[0,0.5],[1,0.5]];portConstraint=eastwest;whiteSpace=wrap;html=1;" parent="5KsK36yTaGeS-g4vnIt7-37" vertex="1">
          <mxGeometry y="34" width="290" height="100" as="geometry" />
        </mxCell>
        <mxCell id="5KsK36yTaGeS-g4vnIt7-41" value="AdminPanel" style="swimlane;fontStyle=1;align=center;verticalAlign=top;childLayout=stackLayout;horizontal=1;startSize=26;horizontalStack=0;resizeParent=1;resizeParentMax=0;resizeLast=0;collapsible=1;marginBottom=0;whiteSpace=wrap;html=1;" parent="1" vertex="1">
          <mxGeometry x="674" y="198" width="210" height="115" as="geometry" />
        </mxCell>
        <mxCell id="5KsK36yTaGeS-g4vnIt7-43" value="" style="line;strokeWidth=1;fillColor=none;align=left;verticalAlign=middle;spacingTop=-1;spacingLeft=3;spacingRight=3;rotatable=0;labelPosition=right;points=[];portConstraint=eastwest;strokeColor=inherit;" parent="5KsK36yTaGeS-g4vnIt7-41" vertex="1">
          <mxGeometry y="26" width="210" height="8" as="geometry" />
        </mxCell>
        <mxCell id="5KsK36yTaGeS-g4vnIt7-44" value="+ exibirListaUsuarios()&lt;div&gt;+ enviarComandoBloqueio()&lt;/div&gt;&lt;div&gt;+ enviarExecption()&lt;br&gt;&lt;/div&gt;" style="text;strokeColor=none;fillColor=none;align=left;verticalAlign=top;spacingLeft=4;spacingRight=4;overflow=hidden;rotatable=0;points=[[0,0.5],[1,0.5]];portConstraint=eastwest;whiteSpace=wrap;html=1;" parent="5KsK36yTaGeS-g4vnIt7-41" vertex="1">
          <mxGeometry y="34" width="210" height="81" as="geometry" />
        </mxCell>
        <mxCell id="5KsK36yTaGeS-g4vnIt7-45" value="DiscordLogin" style="swimlane;fontStyle=1;align=center;verticalAlign=top;childLayout=stackLayout;horizontal=1;startSize=26;horizontalStack=0;resizeParent=1;resizeParentMax=0;resizeLast=0;collapsible=1;marginBottom=0;whiteSpace=wrap;html=1;" parent="1" vertex="1">
          <mxGeometry x="366" y="218" width="210" height="80" as="geometry" />
        </mxCell>
        <mxCell id="5KsK36yTaGeS-g4vnIt7-46" value="" style="line;strokeWidth=1;fillColor=none;align=left;verticalAlign=middle;spacingTop=-1;spacingLeft=3;spacingRight=3;rotatable=0;labelPosition=right;points=[];portConstraint=eastwest;strokeColor=inherit;" parent="5KsK36yTaGeS-g4vnIt7-45" vertex="1">
          <mxGeometry y="26" width="210" height="8" as="geometry" />
        </mxCell>
        <mxCell id="5KsK36yTaGeS-g4vnIt7-47" value="+ exibirLogin()&lt;div&gt;+ redirecionarParaOAuth()&lt;/div&gt;" style="text;strokeColor=none;fillColor=none;align=left;verticalAlign=top;spacingLeft=4;spacingRight=4;overflow=hidden;rotatable=0;points=[[0,0.5],[1,0.5]];portConstraint=eastwest;whiteSpace=wrap;html=1;" parent="5KsK36yTaGeS-g4vnIt7-45" vertex="1">
          <mxGeometry y="34" width="210" height="46" as="geometry" />
        </mxCell>
        <mxCell id="5KsK36yTaGeS-g4vnIt7-48" value="Use" style="endArrow=open;endSize=12;dashed=1;html=1;rounded=0;exitX=0.504;exitY=1.016;exitDx=0;exitDy=0;exitPerimeter=0;entryX=0.6;entryY=-0.011;entryDx=0;entryDy=0;entryPerimeter=0;" parent="1" source="5KsK36yTaGeS-g4vnIt7-44" target="5KsK36yTaGeS-g4vnIt7-37" edge="1">
          <mxGeometry x="-0.0126" width="160" relative="1" as="geometry">
            <mxPoint x="1400" y="192" as="sourcePoint" />
            <mxPoint x="1560" y="192" as="targetPoint" />
            <mxPoint as="offset" />
          </mxGeometry>
        </mxCell>
        <mxCell id="5KsK36yTaGeS-g4vnIt7-49" value="" style="endArrow=open;endFill=1;endSize=12;html=1;rounded=0;exitX=0.494;exitY=1.002;exitDx=0;exitDy=0;exitPerimeter=0;entryX=0.75;entryY=0;entryDx=0;entryDy=0;" parent="1" source="5KsK36yTaGeS-g4vnIt7-40" target="5KsK36yTaGeS-g4vnIt7-17" edge="1">
          <mxGeometry width="160" relative="1" as="geometry">
            <mxPoint x="1259" y="436" as="sourcePoint" />
            <mxPoint x="1419" y="436" as="targetPoint" />
          </mxGeometry>
        </mxCell>
        <mxCell id="5KsK36yTaGeS-g4vnIt7-50" value="Use" style="endArrow=open;endSize=12;dashed=1;html=1;rounded=0;exitX=0.5;exitY=1.018;exitDx=0;exitDy=0;exitPerimeter=0;entryX=0.593;entryY=0;entryDx=0;entryDy=0;entryPerimeter=0;" parent="1" source="5KsK36yTaGeS-g4vnIt7-47" target="5KsK36yTaGeS-g4vnIt7-33" edge="1">
          <mxGeometry x="-0.006" width="160" relative="1" as="geometry">
            <mxPoint x="930" y="253" as="sourcePoint" />
            <mxPoint x="1065" y="301" as="targetPoint" />
            <mxPoint as="offset" />
          </mxGeometry>
        </mxCell>
        <mxCell id="5KsK36yTaGeS-g4vnIt7-51" value="Use" style="endArrow=open;endSize=12;dashed=1;html=1;rounded=0;exitX=0.503;exitY=1.006;exitDx=0;exitDy=0;exitPerimeter=0;entryX=0;entryY=0.5;entryDx=0;entryDy=0;" parent="1" source="5KsK36yTaGeS-g4vnIt7-36" target="5KsK36yTaGeS-g4vnIt7-18" edge="1">
          <mxGeometry x="-0.006" width="160" relative="1" as="geometry">
            <mxPoint x="944" y="396" as="sourcePoint" />
            <mxPoint x="889" y="445" as="targetPoint" />
            <mxPoint as="offset" />
          </mxGeometry>
        </mxCell>
        <mxCell id="5KsK36yTaGeS-g4vnIt7-33" value="AuthController" style="swimlane;fontStyle=1;align=center;verticalAlign=top;childLayout=stackLayout;horizontal=1;startSize=26;horizontalStack=0;resizeParent=1;resizeParentMax=0;resizeLast=0;collapsible=1;marginBottom=0;whiteSpace=wrap;html=1;" parent="1" vertex="1">
          <mxGeometry x="202" y="416" width="300" height="76" as="geometry" />
        </mxCell>
        <mxCell id="5KsK36yTaGeS-g4vnIt7-35" value="" style="line;strokeWidth=1;fillColor=none;align=left;verticalAlign=middle;spacingTop=-1;spacingLeft=3;spacingRight=3;rotatable=0;labelPosition=right;points=[];portConstraint=eastwest;strokeColor=inherit;" parent="5KsK36yTaGeS-g4vnIt7-33" vertex="1">
          <mxGeometry y="26" width="300" height="8" as="geometry" />
        </mxCell>
        <mxCell id="5KsK36yTaGeS-g4vnIt7-36" value="+ autenticarViaDiscord(oauthToken: String): Usuario&lt;div&gt;+ logout(): void&lt;/div&gt;" style="text;strokeColor=none;fillColor=none;align=left;verticalAlign=top;spacingLeft=4;spacingRight=4;overflow=hidden;rotatable=0;points=[[0,0.5],[1,0.5]];portConstraint=eastwest;whiteSpace=wrap;html=1;" parent="5KsK36yTaGeS-g4vnIt7-33" vertex="1">
          <mxGeometry y="34" width="300" height="42" as="geometry" />
        </mxCell>
        <mxCell id="T6Cd3c6cxlewvigG5RWd-7" value="&lt;div style=&quot;text-align: left;&quot;&gt;&lt;span style=&quot;text-align: center;&quot;&gt;Database&lt;/span&gt;&lt;/div&gt;" style="swimlane;fontStyle=1;align=center;verticalAlign=top;childLayout=stackLayout;horizontal=1;startSize=26;horizontalStack=0;resizeParent=1;resizeParentMax=0;resizeLast=0;collapsible=1;marginBottom=0;whiteSpace=wrap;html=1;" vertex="1" parent="1">
          <mxGeometry x="1110" y="192.5" width="200" height="126" as="geometry" />
        </mxCell>
        <mxCell id="T6Cd3c6cxlewvigG5RWd-8" value="" style="line;strokeWidth=1;fillColor=none;align=left;verticalAlign=middle;spacingTop=-1;spacingLeft=3;spacingRight=3;rotatable=0;labelPosition=right;points=[];portConstraint=eastwest;strokeColor=inherit;" vertex="1" parent="T6Cd3c6cxlewvigG5RWd-7">
          <mxGeometry y="26" width="200" height="8" as="geometry" />
        </mxCell>
        <mxCell id="T6Cd3c6cxlewvigG5RWd-9" value="+&amp;nbsp;Hashmap &amp;lt;User&amp;gt;loadUsers()&lt;div&gt;+ saveUsers(Hashmap Users)&lt;/div&gt;&lt;div&gt;+&amp;nbsp;saveUser()&lt;/div&gt;&lt;div&gt;&lt;div&gt;&lt;span style=&quot;background-color: transparent; color: light-dark(rgb(0, 0, 0), rgb(255, 255, 255));&quot;&gt;+ getUsers(User)&lt;/span&gt;&lt;/div&gt;&lt;/div&gt;&lt;div&gt;&lt;span style=&quot;background-color: transparent; color: light-dark(rgb(0, 0, 0), rgb(255, 255, 255));&quot;&gt;+ updateBlockedUser(User)&lt;/span&gt;&lt;/div&gt;" style="text;strokeColor=none;fillColor=none;align=left;verticalAlign=top;spacingLeft=4;spacingRight=4;overflow=hidden;rotatable=0;points=[[0,0.5],[1,0.5]];portConstraint=eastwest;whiteSpace=wrap;html=1;" vertex="1" parent="T6Cd3c6cxlewvigG5RWd-7">
          <mxGeometry y="34" width="200" height="92" as="geometry" />
        </mxCell>
        <mxCell id="T6Cd3c6cxlewvigG5RWd-11" value="Use" style="endArrow=open;endSize=12;dashed=1;html=1;rounded=0;exitX=0.572;exitY=0.011;exitDx=0;exitDy=0;exitPerimeter=0;entryX=0;entryY=0.5;entryDx=0;entryDy=0;" edge="1" parent="1" source="5KsK36yTaGeS-g4vnIt7-37" target="T6Cd3c6cxlewvigG5RWd-9">
          <mxGeometry x="-0.006" width="160" relative="1" as="geometry">
            <mxPoint x="481" y="309" as="sourcePoint" />
            <mxPoint x="1098" y="274" as="targetPoint" />
            <mxPoint as="offset" />
          </mxGeometry>
        </mxCell>
        <mxCell id="T6Cd3c6cxlewvigG5RWd-12" value="InvalidLoginException" style="swimlane;fontStyle=1;align=center;verticalAlign=top;childLayout=stackLayout;horizontal=1;startSize=26;horizontalStack=0;resizeParent=1;resizeParentMax=0;resizeLast=0;collapsible=1;marginBottom=0;whiteSpace=wrap;html=1;" vertex="1" parent="1">
          <mxGeometry x="967" y="394" width="234" height="68" as="geometry" />
        </mxCell>
        <mxCell id="T6Cd3c6cxlewvigG5RWd-13" value="" style="line;strokeWidth=1;fillColor=none;align=left;verticalAlign=middle;spacingTop=-1;spacingLeft=3;spacingRight=3;rotatable=0;labelPosition=right;points=[];portConstraint=eastwest;strokeColor=inherit;" vertex="1" parent="T6Cd3c6cxlewvigG5RWd-12">
          <mxGeometry y="26" width="234" height="8" as="geometry" />
        </mxCell>
        <mxCell id="T6Cd3c6cxlewvigG5RWd-14" value="+ invalidLogin(): InvalidLoginException" style="text;strokeColor=none;fillColor=none;align=left;verticalAlign=top;spacingLeft=4;spacingRight=4;overflow=hidden;rotatable=0;points=[[0,0.5],[1,0.5]];portConstraint=eastwest;whiteSpace=wrap;html=1;" vertex="1" parent="T6Cd3c6cxlewvigG5RWd-12">
          <mxGeometry y="34" width="234" height="34" as="geometry" />
        </mxCell>
        <mxCell id="T6Cd3c6cxlewvigG5RWd-16" value="Use" style="endArrow=open;endSize=12;dashed=1;html=1;rounded=0;exitX=0.993;exitY=0.42;exitDx=0;exitDy=0;exitPerimeter=0;entryX=0.013;entryY=0.345;entryDx=0;entryDy=0;entryPerimeter=0;" edge="1" parent="1" source="5KsK36yTaGeS-g4vnIt7-40" target="T6Cd3c6cxlewvigG5RWd-14">
          <mxGeometry x="-0.006" width="160" relative="1" as="geometry">
            <mxPoint x="856" y="471" as="sourcePoint" />
            <mxPoint x="1233" y="341" as="targetPoint" />
            <mxPoint as="offset" />
          </mxGeometry>
        </mxCell>
        <mxCell id="T6Cd3c6cxlewvigG5RWd-17" value="InvalidPasswordException" style="swimlane;fontStyle=1;align=center;verticalAlign=top;childLayout=stackLayout;horizontal=1;startSize=26;horizontalStack=0;resizeParent=1;resizeParentMax=0;resizeLast=0;collapsible=1;marginBottom=0;whiteSpace=wrap;html=1;" vertex="1" parent="1">
          <mxGeometry x="967" y="477" width="278" height="70" as="geometry" />
        </mxCell>
        <mxCell id="T6Cd3c6cxlewvigG5RWd-18" value="" style="line;strokeWidth=1;fillColor=none;align=left;verticalAlign=middle;spacingTop=-1;spacingLeft=3;spacingRight=3;rotatable=0;labelPosition=right;points=[];portConstraint=eastwest;strokeColor=inherit;" vertex="1" parent="T6Cd3c6cxlewvigG5RWd-17">
          <mxGeometry y="26" width="278" height="8" as="geometry" />
        </mxCell>
        <mxCell id="T6Cd3c6cxlewvigG5RWd-19" value="+ invalidPassword(): InvalidPasswordException" style="text;strokeColor=none;fillColor=none;align=left;verticalAlign=top;spacingLeft=4;spacingRight=4;overflow=hidden;rotatable=0;points=[[0,0.5],[1,0.5]];portConstraint=eastwest;whiteSpace=wrap;html=1;" vertex="1" parent="T6Cd3c6cxlewvigG5RWd-17">
          <mxGeometry y="34" width="278" height="36" as="geometry" />
        </mxCell>
        <mxCell id="T6Cd3c6cxlewvigG5RWd-20" value="SqlException" style="swimlane;fontStyle=1;align=center;verticalAlign=top;childLayout=stackLayout;horizontal=1;startSize=26;horizontalStack=0;resizeParent=1;resizeParentMax=0;resizeLast=0;collapsible=1;marginBottom=0;whiteSpace=wrap;html=1;" vertex="1" parent="1">
          <mxGeometry x="1270" y="426" width="236" height="69" as="geometry" />
        </mxCell>
        <mxCell id="T6Cd3c6cxlewvigG5RWd-22" value="+ invalidSQL(): InvalidSQLException" style="text;strokeColor=none;fillColor=none;align=left;verticalAlign=top;spacingLeft=4;spacingRight=4;overflow=hidden;rotatable=0;points=[[0,0.5],[1,0.5]];portConstraint=eastwest;whiteSpace=wrap;html=1;" vertex="1" parent="T6Cd3c6cxlewvigG5RWd-20">
          <mxGeometry y="26" width="236" height="35" as="geometry" />
        </mxCell>
        <mxCell id="T6Cd3c6cxlewvigG5RWd-21" value="" style="line;strokeWidth=1;fillColor=none;align=left;verticalAlign=middle;spacingTop=-1;spacingLeft=3;spacingRight=3;rotatable=0;labelPosition=right;points=[];portConstraint=eastwest;strokeColor=inherit;" vertex="1" parent="T6Cd3c6cxlewvigG5RWd-20">
          <mxGeometry y="61" width="236" height="8" as="geometry" />
        </mxCell>
        <mxCell id="T6Cd3c6cxlewvigG5RWd-23" value="Use" style="endArrow=open;endSize=12;dashed=1;html=1;rounded=0;exitX=1;exitY=0.52;exitDx=0;exitDy=0;exitPerimeter=0;entryX=0.005;entryY=0.111;entryDx=0;entryDy=0;entryPerimeter=0;" edge="1" parent="1" source="5KsK36yTaGeS-g4vnIt7-40" target="T6Cd3c6cxlewvigG5RWd-19">
          <mxGeometry x="-0.006" width="160" relative="1" as="geometry">
            <mxPoint x="865" y="488" as="sourcePoint" />
            <mxPoint x="980" y="450" as="targetPoint" />
            <mxPoint as="offset" />
          </mxGeometry>
        </mxCell>
        <mxCell id="T6Cd3c6cxlewvigG5RWd-25" value="Use" style="endArrow=open;endSize=12;dashed=1;html=1;rounded=0;exitX=1;exitY=0.52;exitDx=0;exitDy=0;exitPerimeter=0;" edge="1" parent="1" target="T6Cd3c6cxlewvigG5RWd-20">
          <mxGeometry x="-0.006" width="160" relative="1" as="geometry">
            <mxPoint x="1257" y="318.5" as="sourcePoint" />
            <mxPoint x="1368" y="345.5" as="targetPoint" />
            <mxPoint as="offset" />
          </mxGeometry>
        </mxCell>
      </root>
    </mxGraphModel>
  </diagram>
</mxfile>
